<?xml version="1.0" encoding="UTF-8"?>
<!DOCTYPE svg PUBLIC "-//W3C//DTD SVG 1.0//EN" "http://www.w3.org/TR/2001/REC-SVG-20010904/DTD/svg10.dtd">
<!-- Creator: CorelDRAW X7 -->
<svg xmlns="http://www.w3.org/2000/svg" xml:space="preserve" width="943px" height="482px" version="1.0" style="shape-rendering:geometricPrecision; text-rendering:geometricPrecision; image-rendering:optimizeQuality; fill-rule:evenodd; clip-rule:evenodd"
viewBox="0 0 943 482"
 xmlns:xlink="http://www.w3.org/1999/xlink">
 <defs>
  <style type="text/css">
   <![CDATA[
    .fil0 {fill:#2D3194}
    .fil1 {fill:#EE1B22}
    .fil2 {fill:#FEFEFE}
    .fil3 {fill:#EE1B22;fill-rule:nonzero}
   ]]>
  </style>
   <mask id="id0">
  <linearGradient id="id1" gradientUnits="userSpaceOnUse" x1="695.909" y1="517.819" x2="299.103" y2="432.658">
   <stop offset="0" style="stop-opacity:1; stop-color:white"/>
   <stop offset="1" style="stop-opacity:0; stop-color:white"/>
  </linearGradient>
    <rect style="fill:url(#id1)" x="193" y="467" width="609.575" height="15.7179"/>
   </mask>
 </defs>
 <g id="Layer_x0020_1">
  <metadata id="CorelCorpID_0Corel-Layer"/>
  <path class="fil0" d="M942 290l-497 0c100,-73 186,-159 266,-252 34,12 66,26 95,43 16,9 31,19 44,30 -35,0 -42,0 -75,24 -11,8 -23,17 -36,26 -59,4 -106,3 -164,59l33 25 27 0 0 0c0,-26 18,-48 40,-48 23,0 41,21 41,48l9 0 215 -1c2,10 3,19 3,29 0,6 0,12 -1,17zm-267 -80c17,0 30,16 30,35 0,19 -13,35 -30,35 -16,0 -29,-16 -29,-35 0,-19 13,-35 29,-35z"/>
  <path class="fil1" d="M691 31c-80,96 -195,200 -331,296 -36,25 -71,48 -105,70 -41,25 -81,47 -120,67 -83,-49 -135,-116 -135,-191 0,-75 52,-143 137,-192 86,-50 204,-81 335,-81 79,0 153,11 219,31z"/>
  <path class="fil2" d="M88 148l128 0 28 27 57 0 29 -29 -43 -43 16 -16 57 57 76 0c0,0 -4,44 0,44 5,0 25,0 25,0l0 34 -21 0 -7 0 0 -1c0,-29 -23,-52 -52,-52 -28,0 -51,23 -51,52l0 1 -9 0 -102 0 -7 0 0 -1c0,-29 -23,-52 -52,-52 -28,0 -51,23 -51,52l0 0 -20 -1 0 3 -16 0 0 -44 15 0 0 -31zm73 42c21,0 38,17 38,38 0,21 -17,38 -38,38 -21,0 -38,-17 -38,-38 0,-21 17,-38 38,-38zm0 12c15,0 26,12 26,26 0,15 -11,26 -26,26 -14,0 -26,-11 -26,-26 0,-14 12,-26 26,-26zm222 -12c21,0 38,17 38,38 0,21 -17,38 -38,38 -21,0 -38,-17 -38,-38 0,-21 17,-38 38,-38zm0 12c15,0 27,12 27,26 0,15 -12,26 -27,26 -14,0 -26,-11 -26,-26 0,-14 12,-26 26,-26z"/>
  <path class="fil3" d="M419 343l22 0 4 -16c1,-2 1,-4 1,-5 0,-1 0,-2 -1,-3 -1,0 -3,-1 -5,-1l0 -1 29 0 -1 1c-3,0 -5,1 -6,2 -2,1 -3,4 -4,7l-10 37c-1,3 -2,5 -2,6 0,1 1,1 2,2 1,1 2,1 5,1l0 2 -29 0 1 -2c3,0 5,0 6,-1 1,-1 3,-4 4,-8l5 -17 -22 0 -4 17c-1,3 -2,5 -2,6 0,1 1,2 2,2 1,1 2,1 5,1l0 2 -28 0 0 -2c3,0 5,0 6,-1 1,-1 3,-4 4,-8l10 -37c1,-2 1,-4 1,-5 0,-1 0,-2 -1,-3 -1,0 -2,-1 -5,-1l0 -1 28 0 0 1c-3,0 -5,1 -6,2 -1,1 -3,3 -4,7l-5 16z"/>
  <path id="1" class="fil3" d="M481 315c2,0 4,1 5,2 1,1 2,3 2,5 0,1 -1,3 -2,4 -1,1 -3,2 -5,2 -1,0 -3,-1 -4,-2 -1,-1 -2,-3 -2,-4 0,-2 1,-4 2,-5 1,-1 3,-2 4,-2zm4 20l-10 30c0,2 0,3 0,4 0,0 0,0 0,0 0,1 1,1 1,1 0,0 1,0 1,-1 2,-1 3,-3 5,-6l1 1c-4,8 -9,12 -14,12 -1,0 -3,-1 -4,-2 -1,-1 -2,-2 -2,-4 0,-1 1,-2 1,-4l7 -20c0,-2 1,-3 1,-4 0,-1 -1,-2 -1,-2 -1,-1 -2,-1 -3,-1 0,0 -1,0 -1,0l0 -2 15 -2 3 0z"/>
  <path id="2" class="fil3" d="M508 335l-7 24c5,-12 9,-19 11,-22 2,-1 3,-2 5,-2 1,0 2,1 3,1 1,1 1,2 1,4 0,3 -1,5 -2,7 -1,1 -2,2 -3,2 -1,0 -2,-1 -2,-2 -1,-1 -1,-1 -1,-2 -1,0 -1,0 -1,0 0,0 -1,0 -1,0 -1,1 -1,2 -2,3 -1,1 -3,3 -4,7 -1,3 -3,5 -3,8 -1,2 -2,6 -4,12l-11 0 9 -29c0,-2 0,-3 0,-4 0,-1 0,-1 0,-2 -1,0 -1,0 -2,-1 0,0 -1,0 -3,0l0 -1 14 -3 3 0z"/>
  <path id="3" class="fil3" d="M534 359c-1,1 -1,3 -1,4 0,2 1,4 2,5 1,2 3,2 5,2 2,0 4,0 6,-1 2,-1 4,-2 7,-5l1 2c-3,3 -6,6 -9,8 -3,1 -7,2 -11,2 -4,0 -8,-1 -9,-4 -2,-2 -3,-4 -3,-7 0,-5 1,-10 4,-14 3,-5 6,-9 11,-12 5,-2 9,-4 14,-4 3,0 4,1 6,2 1,1 1,2 1,4 0,2 0,4 -1,6 -2,3 -4,5 -7,7 -2,1 -5,2 -8,3 -2,1 -5,1 -8,2zm0 -3c2,0 4,0 6,-1 1,-1 3,-2 4,-3 1,-2 2,-3 3,-5 1,-3 2,-5 2,-6 0,-1 0,-2 -1,-2 0,-1 -1,-1 -2,-1 -1,0 -2,1 -4,3 -3,3 -6,9 -8,15z"/>
  <path id="4" class="fil3" d="M612 317l18 38 8 -28c0,-1 0,-3 0,-4 0,-1 0,-2 -1,-3 -1,-1 -2,-2 -5,-2l1 -1 18 0 0 1c-3,0 -5,1 -6,2 -2,1 -3,4 -4,7l-14 48 -1 0 -24 -49 -11 38c0,2 0,3 0,4 0,2 0,3 1,4 1,1 3,1 5,1l0 2 -19 0 0 -2c2,0 3,0 4,0 1,-1 2,-2 3,-3 1,-1 2,-3 3,-5l12 -43c-1,-1 -3,-3 -4,-3 -1,-1 -2,-1 -4,-1l0 -1 20 0z"/>
  <path id="5" class="fil3" d="M657 343l-1 -2c5,-3 8,-5 9,-6 0,-1 1,-2 1,-3 0,-1 -1,-2 -2,-4 -2,-1 -3,-2 -3,-3 -1,-1 -1,-2 -1,-3 0,-2 1,-3 2,-5 2,-1 3,-2 5,-2 2,0 4,1 5,3 2,1 2,3 2,5 0,4 -1,7 -4,11 -2,3 -7,6 -13,9z"/>
  <path id="6" class="fil3" d="M685 375l1 -2c3,0 5,0 6,-2 2,-1 3,-3 4,-6l10 -37c1,-2 1,-4 1,-6 0,-1 0,-2 -1,-3 -1,0 -3,-1 -6,-1l0 -1 20 0c11,0 18,2 23,6 4,4 7,10 7,18 0,5 -1,10 -3,13 -5,8 -10,13 -15,16 -6,3 -14,5 -23,5l-24 0zm36 -55l-12 44c-1,2 -1,4 -1,4 0,1 0,2 1,2 1,1 2,1 4,1 4,0 7,-1 10,-3 4,-4 8,-8 10,-13 2,-6 3,-11 3,-17 0,-3 -1,-7 -2,-10 -1,-3 -3,-5 -6,-6 -2,-1 -4,-2 -7,-2z"/>
  <path id="7" class="fil3" d="M774 335l-8 24c6,-12 9,-19 12,-22 2,-1 3,-2 5,-2 1,0 2,1 3,1 0,1 1,2 1,4 0,3 -1,5 -2,7 -1,1 -2,2 -3,2 -1,0 -2,-1 -3,-2 0,-1 0,-1 -1,-2 0,0 0,0 0,0 -1,0 -1,0 -1,0 -1,1 -2,2 -3,3 -1,1 -2,3 -3,7 -2,3 -3,5 -4,8 -1,2 -2,6 -3,12l-11 0 8 -29c1,-2 1,-3 1,-4 0,-1 0,-1 -1,-2 0,0 0,0 -1,-1 0,0 -2,0 -4,0l1 -1 14 -3 3 0z"/>
  <path id="8" class="fil3" d="M805 315c2,0 4,1 5,2 1,1 2,3 2,5 0,1 -1,3 -2,4 -1,1 -3,2 -5,2 -1,0 -3,-1 -4,-2 -1,-1 -2,-3 -2,-4 0,-2 1,-4 2,-5 1,-1 3,-2 4,-2zm4 20l-9 30c-1,2 -1,3 -1,4 0,0 0,0 0,0 0,1 1,1 1,1 0,0 1,0 1,-1 2,-1 3,-3 5,-6l1 1c-4,8 -9,12 -13,12 -2,0 -4,-1 -5,-2 -1,-1 -2,-2 -2,-4 0,-1 1,-2 1,-4l7 -20c0,-2 1,-3 1,-4 0,-1 -1,-2 -1,-2 -1,-1 -2,-1 -3,-1 0,0 -1,0 -1,0l0 -2 15 -2 3 0z"/>
  <path id="9" class="fil3" d="M822 376l-1 0c0,-2 0,-4 0,-5 0,-4 -1,-8 -1,-15 -1,-6 -1,-10 -2,-12 0,-1 -1,-2 -2,-3 0,-1 -1,-1 -2,-1 0,0 -1,0 -2,0l0 -1 15 -4c3,8 4,18 4,30 4,-4 7,-7 8,-10 2,-2 3,-4 3,-6 0,-1 -1,-3 -2,-4 -1,-1 -1,-2 -2,-3 0,0 0,-1 0,-2 0,-1 1,-2 2,-3 1,-1 2,-2 3,-2 2,0 3,1 4,2 1,1 2,3 2,5 0,2 -1,3 -1,5 -1,2 -2,4 -4,7 -2,3 -4,5 -6,7 -3,4 -9,9 -16,15z"/>
  <path id="10" class="fil3" d="M862 359c0,1 0,3 0,4 0,2 1,4 2,5 1,2 3,2 5,2 2,0 4,0 6,-1 2,-1 4,-2 7,-5l1 2c-3,3 -6,6 -9,8 -4,1 -7,2 -11,2 -4,0 -8,-1 -10,-4 -1,-2 -2,-4 -2,-7 0,-5 1,-10 4,-14 2,-5 6,-9 11,-12 5,-2 9,-4 14,-4 2,0 4,1 5,2 2,1 2,2 2,4 0,2 0,4 -2,6 -1,3 -3,5 -6,7 -2,1 -5,2 -8,3 -2,1 -5,1 -9,2zm1 -3c2,0 4,0 6,-1 1,-1 2,-2 4,-3 1,-2 2,-3 3,-5 1,-3 2,-5 2,-6 0,-1 -1,-2 -1,-2 0,-1 -1,-1 -2,-1 -1,0 -3,1 -4,3 -4,3 -6,9 -8,15z"/>
  <path class="fil3" d="M577 444l-20 0 0 -2c1,0 2,0 3,-1 1,0 1,-1 1,-2 0,-1 0,-3 -1,-5l-5 -16 -5 17c-1,2 -1,3 -1,4 0,1 0,2 1,2 1,1 2,1 4,1l0 2 -23 0 1 -2c1,0 3,0 4,0 1,-1 1,-2 2,-2 0,-1 1,-3 2,-6l8 -27c0,-3 1,-5 1,-6 0,-1 0,-2 -1,-2 -1,-1 -2,-1 -4,-1l0 -1 22 0 0 1c-2,0 -3,0 -4,1 -1,0 -2,1 -2,2 -1,1 -1,3 -2,6l-3 11 12 -12c2,-2 4,-3 4,-3 0,-1 1,-2 1,-2 0,-1 -1,-2 -1,-2 -1,-1 -1,-1 -3,-1l1 -1 17 0 0 1c-1,0 -3,0 -3,0 -2,1 -3,1 -4,2 -2,1 -3,2 -5,3l-3 3 -7 7 5 17c2,6 3,10 4,11 1,1 3,1 4,1l0 2z"/>
  <path id="1" class="fil3" d="M592 431c0,1 -1,2 -1,3 0,2 1,3 2,4 1,1 2,2 4,2 2,0 3,0 5,-1 1,-1 3,-2 5,-4l2 1c-3,3 -6,5 -8,7 -3,1 -6,1 -9,1 -3,0 -6,0 -8,-2 -1,-2 -2,-4 -2,-7 0,-3 1,-7 4,-11 2,-4 5,-7 9,-9 3,-2 7,-4 11,-4 2,0 3,1 4,2 1,1 2,2 2,3 0,2 -1,4 -2,5 -1,2 -3,4 -5,5 -2,2 -4,3 -6,3 -2,1 -4,1 -7,2zm0 -2c2,-1 4,-1 5,-1 1,-1 2,-2 3,-3 1,-1 2,-3 3,-4 1,-2 1,-4 1,-5 0,-1 0,-1 0,-2 -1,0 -1,0 -2,0 -1,0 -2,1 -4,2 -2,3 -4,7 -6,13z"/>
  <path id="2" class="fil3" d="M631 411l-4 15c3,-4 5,-7 7,-9 2,-2 4,-3 6,-4 1,-1 3,-2 4,-2 1,0 2,1 3,2 1,1 2,2 2,4 0,1 -1,3 -1,4l-5 15c0,1 0,2 0,2 0,1 0,1 0,1 0,0 0,0 0,0 1,0 1,0 1,0 1,-1 2,-2 3,-3 0,0 0,-1 1,-1l1 1c-4,5 -7,8 -11,8 -1,0 -2,0 -3,-1 -1,-1 -2,-2 -2,-3 0,-1 1,-2 1,-4l5 -15c0,-1 1,-2 1,-2 0,0 -1,-1 -1,-1 0,0 0,0 -1,0 -1,0 -2,0 -3,2 -4,3 -7,7 -10,13l-3 11 -9 0 7 -23c0,-2 1,-3 1,-4 0,-1 0,-1 -1,-1 0,-1 0,-1 -1,-1 0,0 -1,0 -2,0l0 -1 12 -3 2 0z"/>
  <path id="3" class="fil3" d="M653 415l11 -4c1,2 1,3 2,3 0,2 1,4 1,7 0,6 1,12 1,18 2,-3 5,-7 8,-12 1,-2 2,-4 2,-5 0,-1 -1,-2 -2,-3 -1,0 -2,-1 -2,-1 0,-1 0,-2 0,-2 0,-1 0,-2 1,-3 1,-1 2,-2 3,-2 1,0 2,1 3,2 1,1 2,2 2,3 0,2 -1,4 -2,6 0,2 -2,5 -6,10 -4,7 -8,12 -12,17 -2,3 -4,5 -6,6 -1,1 -3,2 -4,3 -1,1 -2,1 -3,1 -2,0 -3,-1 -4,-2 -1,0 -1,-2 -1,-3 0,-1 0,-2 1,-3 1,-1 2,-1 3,-1 1,0 3,0 4,2 1,1 1,1 2,1 0,0 1,0 1,0 1,-1 2,-1 3,-3 0,-3 1,-5 1,-6 0,-2 -1,-5 -1,-9l0 -13c-1,-2 -1,-4 -2,-5 -1,-1 -1,-1 -2,-1 -1,0 -1,0 -2,0l0 -1z"/>
  <path id="4" class="fil3" d="M717 412l-7 23 -1 3c0,0 0,0 0,0 0,1 0,1 1,1 0,0 0,1 0,1 1,0 1,-1 2,-2 0,0 1,-1 3,-3l1 1c-2,3 -4,5 -5,6 -2,2 -4,2 -6,2 -2,0 -3,0 -3,-1 -1,0 -1,-1 -1,-2 0,-1 0,-3 1,-5l1 -3c-3,5 -6,8 -8,10 -2,1 -3,1 -5,1 -2,0 -3,0 -4,-2 -1,-2 -2,-4 -2,-6 0,-3 1,-7 3,-11 2,-4 5,-8 8,-10 3,-2 5,-4 8,-4 1,0 2,1 3,2 1,0 1,2 1,4l2 -5 8 0zm-11 7c0,-2 -1,-4 -1,-4 -1,-1 -1,-1 -2,-1 -1,0 -1,0 -2,1 -2,1 -3,4 -5,8 -2,5 -3,8 -3,12 0,1 0,2 1,2 0,1 1,1 1,1 1,0 2,-1 3,-2 2,-1 3,-3 4,-6 3,-4 4,-8 4,-11z"/>
  <path id="5" class="fil3" d="M771 444l-37 0 0 -2c2,0 4,0 5,-1 1,-1 2,-3 3,-6l8 -30c1,-2 1,-3 1,-4 0,-1 0,-2 -1,-2 -1,-1 -2,-1 -4,-1l0 -1 23 0 -1 1c-2,0 -3,0 -4,1 -2,1 -3,3 -3,6l-8 28c-1,3 -2,5 -2,6 0,0 1,1 1,1 1,1 1,1 3,1 3,0 7,-1 11,-3 3,-1 6,-4 9,-8l1 0 -5 14z"/>
  <path id="6" class="fil3" d="M800 403l-3 9 4 0 -1 4 -4 0 -6 21c-1,1 -1,2 -1,3 0,0 0,0 0,0 1,0 1,0 1,0 0,0 1,0 1,0 1,-1 3,-2 4,-4l1 0c-1,3 -3,5 -5,7 -2,1 -4,1 -6,1 -1,0 -3,0 -3,-1 -1,-1 -2,-2 -2,-3 0,-1 1,-3 1,-5l6 -19 -4 0 0 -2c3,-1 6,-2 8,-4 2,-1 4,-4 7,-7l2 0z"/>
  <path id="7" class="fil3" d="M838 396l-12 38c-1,3 -1,4 -1,5 0,0 0,0 0,0 1,0 1,1 1,1 0,0 1,-1 1,-1 1,-1 2,-2 3,-4l2 1c-4,6 -7,8 -11,8 -2,0 -3,0 -3,-1 -1,0 -1,-1 -1,-2 0,-1 0,-3 0,-5l2 -4c-3,6 -6,9 -8,11 -2,1 -3,1 -5,1 -1,0 -3,0 -4,-2 -1,-1 -2,-3 -2,-6 0,-3 1,-7 2,-10 2,-3 4,-6 6,-8 2,-3 4,-4 6,-5 1,-1 3,-2 5,-2 1,0 2,1 2,1 1,0 2,1 3,2l2 -8c1,-3 1,-4 1,-5 0,-1 0,-1 0,-2 -1,0 -1,0 -2,0 0,0 -1,0 -1,0l0 -1 12 -2 2 0zm-16 22c0,-2 0,-3 -1,-4 0,0 -1,-1 -1,-1 -1,0 -2,1 -3,2 -2,1 -3,4 -5,8 -2,5 -3,9 -3,12 0,1 0,2 1,2 0,1 1,1 1,1 1,0 2,0 3,-1 2,-2 3,-5 5,-9 2,-4 3,-8 3,-10z"/>
  <path class="fil0" style="mask:url(#id0)" d="M775 482l-581 0 0 -14 607 0c-8,5 -17,10 -26,14z"/>
 </g>
</svg>
